HIERARCHY
ROOT Hips
{
	OFFSET 0.000000 35.082581 0.000000
	CHANNELS 6 Xposition Yposition Zposition Xrotation Yrotation Zrotation 
	JOINT Spine
	{
		OFFSET 0.000000 6.876099 0.125700
		CHANNELS 3 Xrotation Yrotation Zrotation
		JOINT Spine1
		{
			OFFSET 0.000000 5.730043 0.104720
			CHANNELS 3 Xrotation Yrotation Zrotation
			JOINT Spine1_split
			{
				OFFSET 0.000000 5.730043 0.104720
				CHANNELS 3 Xrotation Yrotation Zrotation
				JOINT Spine2
				{
					OFFSET 0.000000 5.730043 0.104720
					CHANNELS 3 Xrotation Yrotation Zrotation
					JOINT Neck
					{
						OFFSET 0.000000 10.314075 0.188496
						CHANNELS 3 Xrotation Yrotation Zrotation
						JOINT Head
						{
							OFFSET 0.000000 7.643700 -2.377400
							CHANNELS 3 Xrotation Yrotation Zrotation
							JOINT HeadTop_End
							{
								OFFSET 0.000000 43.788605 -13.619600
								CHANNELS 3 Xrotation Yrotation Zrotation
								End Site
								{
									OFFSET 0.000000 0.000000 0.000000
								}
							}
						}
					}
					JOINT LeftShoulder
					{
						OFFSET 2.196100 4.412489 0.087492
						CHANNELS 3 Xrotation Yrotation Zrotation
						JOINT LeftShoulder_split
						{
							OFFSET 2.196100 4.412489 0.087492
							CHANNELS 3 Xrotation Yrotation Zrotation
							JOINT LeftArm
							{
								OFFSET 8.771219 -2.981674 -0.026999
								CHANNELS 3 Xrotation Yrotation Zrotation
								JOINT LeftForeArm
								{
									OFFSET 8.512804 0.000000 -0.000000
									CHANNELS 3 Xrotation Yrotation Zrotation
									JOINT LeftHand
									{
										OFFSET 18.484802 0.000000 -0.000000
										CHANNELS 3 Xrotation Yrotation Zrotation
										JOINT LeftHandThumb1
										{
											OFFSET 2.499420 -1.158070 2.653252
											CHANNELS 3 Xrotation Yrotation Zrotation
											JOINT LeftHandThumb2
											{
												OFFSET 2.370079 -1.368366 1.368366
												CHANNELS 3 Xrotation Yrotation Zrotation
												JOINT LeftHandThumb3
												{
													OFFSET 2.676727 -1.545410 1.545409
													CHANNELS 3 Xrotation Yrotation Zrotation
													JOINT LeftHandThumb4
													{
														OFFSET 1.692226 -0.977005 0.977007
														CHANNELS 3 Xrotation Yrotation Zrotation
														End Site
														{
															OFFSET 0.000000 0.000000 0.000000
														}
													}
												}
											}
										}
										JOINT LeftHandIndex1
										{
											OFFSET 7.924831 -0.457527 2.345128
											CHANNELS 3 Xrotation Yrotation Zrotation
											JOINT LeftHandIndex2
											{
												OFFSET 3.643303 0.000000 0.000000
												CHANNELS 3 Xrotation Yrotation Zrotation
												JOINT LeftHandIndex3
												{
													OFFSET 3.810799 0.000000 0.000000
													CHANNELS 3 Xrotation Yrotation Zrotation
													JOINT LeftHandIndex4
													{
														OFFSET 2.403702 0.000000 0.000000
														CHANNELS 3 Xrotation Yrotation Zrotation
														End Site
														{
															OFFSET 0.000000 0.000000 0.000000
														}
													}
												}
											}
										}
										JOINT LeftHandMiddle1
										{
											OFFSET 8.563995 0.000000 -0.000000
											CHANNELS 3 Xrotation Yrotation Zrotation
											JOINT LeftHandMiddle2
											{
												OFFSET 3.861618 0.000000 0.000000
												CHANNELS 3 Xrotation Yrotation Zrotation
												JOINT LeftHandMiddle3
												{
													OFFSET 3.701603 0.000000 0.000000
													CHANNELS 3 Xrotation Yrotation Zrotation
													JOINT LeftHandMiddle4
													{
														OFFSET 2.322544 0.000000 0.000000
														CHANNELS 3 Xrotation Yrotation Zrotation
														End Site
														{
															OFFSET 0.000000 0.000000 0.000000
														}
													}
												}
											}
										}
										JOINT LeftHandRing1
										{
											OFFSET 8.426460 -0.424637 -3.286992
											CHANNELS 3 Xrotation Yrotation Zrotation
											JOINT LeftHandRing2
											{
												OFFSET 3.126408 0.000000 0.000000
												CHANNELS 3 Xrotation Yrotation Zrotation
												JOINT LeftHandRing3
												{
													OFFSET 3.085026 0.000000 0.000000
													CHANNELS 3 Xrotation Yrotation Zrotation
													JOINT LeftHandRing4
													{
														OFFSET 1.644005 0.000000 0.000000
														CHANNELS 3 Xrotation Yrotation Zrotation
														End Site
														{
															OFFSET 0.000000 0.000000 0.000000
														}
													}
												}
											}
										}
									}
								}
							}
						}
					}
					JOINT RightShoulder
					{
						OFFSET -2.196100 4.412496 0.070690
						CHANNELS 3 Xrotation Yrotation Zrotation
						JOINT RightShoulder_split
						{
							OFFSET -2.196100 4.412496 0.070690
							CHANNELS 3 Xrotation Yrotation Zrotation
							JOINT RightArm
							{
								OFFSET -8.771282 -2.981682 -0.094208
								CHANNELS 3 Xrotation Yrotation Zrotation
								JOINT RightForeArm
								{
									OFFSET -8.494598 0.000000 0.000000
									CHANNELS 3 Xrotation Yrotation Zrotation
									JOINT RightHand
									{
										OFFSET -18.483803 0.000000 0.000001
										CHANNELS 3 Xrotation Yrotation Zrotation
										JOINT RightHandThumb1
										{
											OFFSET -2.527351 -1.008072 2.575253
											CHANNELS 3 Xrotation Yrotation Zrotation
											JOINT RightHandThumb2
											{
												OFFSET -2.321518 -1.340328 1.340329
												CHANNELS 3 Xrotation Yrotation Zrotation
												JOINT RightHandThumb3
												{
													OFFSET -2.657753 -1.534454 1.534455
													CHANNELS 3 Xrotation Yrotation Zrotation
													JOINT RightHandThumb4
													{
														OFFSET -1.807510 -1.043568 1.043567
														CHANNELS 3 Xrotation Yrotation Zrotation
														End Site
														{
															OFFSET 0.000000 0.000000 0.000000
														}
													}
												}
											}
										}
										JOINT RightHandIndex1
										{
											OFFSET -8.811420 0.015533 2.887987
											CHANNELS 3 Xrotation Yrotation Zrotation
											JOINT RightHandIndex2
											{
												OFFSET -3.537502 0.000000 0.000000
												CHANNELS 3 Xrotation Yrotation Zrotation
												JOINT RightHandIndex3
												{
													OFFSET -3.356201 0.000000 0.000000
													CHANNELS 3 Xrotation Yrotation Zrotation
													JOINT RightHandIndex4
													{
														OFFSET -1.933098 0.000000 0.000000
														CHANNELS 3 Xrotation Yrotation Zrotation
														End Site
														{
															OFFSET 0.000000 0.000000 0.000000
														}
													}
												}
											}
										}
										JOINT RightHandMiddle1
										{
											OFFSET -8.178135 0.000000 0.000000
											CHANNELS 3 Xrotation Yrotation Zrotation
											JOINT RightHandMiddle2
											{
												OFFSET -3.901302 0.000000 0.000000
												CHANNELS 3 Xrotation Yrotation Zrotation
												JOINT RightHandMiddle3
												{
													OFFSET -3.909599 0.000000 0.000000
													CHANNELS 3 Xrotation Yrotation Zrotation
													JOINT RightHandMiddle4
													{
														OFFSET -2.376003 0.000000 0.000000
														CHANNELS 3 Xrotation Yrotation Zrotation
														End Site
														{
															OFFSET 0.000000 0.000000 0.000000
														}
													}
												}
											}
										}
										JOINT RightHandRing1
										{
											OFFSET -7.559013 0.014137 -2.865403
											CHANNELS 3 Xrotation Yrotation Zrotation
											JOINT RightHandRing2
											{
												OFFSET -3.449306 0.000000 0.000000
												CHANNELS 3 Xrotation Yrotation Zrotation
												JOINT RightHandRing3
												{
													OFFSET -3.362106 0.000000 0.000000
													CHANNELS 3 Xrotation Yrotation Zrotation
													JOINT RightHandRing4
													{
														OFFSET -2.076401 0.000000 0.000000
														CHANNELS 3 Xrotation Yrotation Zrotation
														End Site
														{
															OFFSET 0.000000 0.000000 0.000000
														}
													}
												}
											}
										}
									}
								}
							}
						}
					}
				}
			}
		}
	}
	JOINT LeftUpLeg
	{
		OFFSET 10.205400 -3.823500 0.155100
		CHANNELS 3 Xrotation Yrotation Zrotation
		JOINT LeftLeg
		{
			OFFSET 0.708757 -12.982077 0.567790
			CHANNELS 3 Xrotation Yrotation Zrotation
			JOINT LeftFoot
			{
				OFFSET -0.708756 -10.717838 -2.184338
				CHANNELS 3 Xrotation Yrotation Zrotation
				JOINT LeftToeBase
				{
					OFFSET 0.108149 -7.191104 7.560241
					CHANNELS 3 Xrotation Yrotation Zrotation
					JOINT LeftToe_End
					{
						OFFSET 0.070230 0.081724 4.490308
						CHANNELS 3 Xrotation Yrotation Zrotation
						End Site
						{
							OFFSET 0.000000 0.000000 0.000000
						}
					}
				}
			}
		}
	}
	JOINT RightUpLeg
	{
		OFFSET -10.205400 -3.823500 0.005500
		CHANNELS 3 Xrotation Yrotation Zrotation
		JOINT RightLeg
		{
			OFFSET -0.708756 -12.982134 0.610632
			CHANNELS 3 Xrotation Yrotation Zrotation
			JOINT RightFoot
			{
				OFFSET 0.708754 -10.717769 -1.945823
				CHANNELS 3 Xrotation Yrotation Zrotation
				JOINT RightToeBase
				{
					OFFSET -0.108140 -7.191069 7.372968
					CHANNELS 3 Xrotation Yrotation Zrotation
					JOINT RightToe_End
					{
						OFFSET -0.070227 0.081735 4.479403
						CHANNELS 3 Xrotation Yrotation Zrotation
						End Site
						{
							OFFSET 0.000000 0.000000 0.000000
						}
					}
				}
			}
		}
	}
}
MOTION
Frames: 4
Frame Time: 0.016667
0.188625 44.975048 8.081474 -90.805774 -2.094023 1.577455 0.697333 -0.115324 -0.728599 0.841703 0.154199 -0.463160 0.000000 0.000000 0.000000 0.831234 0.158014 -0.488483 -3.902724 4.009045 -8.413906 2.479700 8.403993 -12.879455 0.000000 0.000000 -0.000002 0.834127 -6.730778 -3.480283 0.000000 0.000000 0.000000 44.076587 -39.845848 -34.620914 -0.000040 -83.340520 -0.000024 -23.114866 -8.492730 7.463191 -1.945778 1.585332 13.204800 8.601836 21.114948 -0.258284 -4.250523 28.326741 20.005271 0.000001 0.000003 -0.000002 0.776302 5.158039 -28.512490 0.565997 2.514181 -25.370934 0.306478 1.871768 -18.596440 -0.000001 -0.000002 -0.000002 0.776305 5.158043 -28.512495 0.566010 2.514176 -25.370941 0.084771 0.994025 -9.747965 0.000003 -0.000001 -0.000003 0.776290 5.158040 -28.512500 0.351472 2.000434 -19.927997 0.131459 1.235369 -12.147812 -0.000001 -0.000001 0.000001 0.483611 4.500679 3.202682 0.000000 0.000000 0.000000 -4.326314 2.268510 83.611508 -0.000013 129.571953 -0.000008 -0.045398 -5.712095 64.766798 -1.120910 -3.665703 -6.555849 8.244849 -30.620773 -3.274788 -5.098230 -8.587492 -15.375862 0.000002 0.000003 -0.000002 4.540607 -8.344323 48.387393 6.575561 -4.244502 114.349108 1.886336 -3.744670 53.459795 0.000002 -0.000000 0.000000 2.375482 -6.542193 44.640207 7.222619 -3.888173 123.454795 1.885859 -3.744337 53.452671 -0.000002 -0.000000 -0.000000 2.745582 -6.923863 44.442292 7.225007 -3.886566 123.490312 1.886196 -3.744577 53.457821 -0.000000 -0.000001 -0.000001 -11.572579 16.985169 19.744829 16.690402 0.139155 1.045687 18.742594 31.315659 -28.114233 -1.872561 0.000003 0.000003 -0.000001 0.000003 -0.000000 -16.879631 -15.344338 -20.647701 24.421343 -3.355074 -4.547239 25.521862 -32.925497 33.970998 -4.604190 0.000018 -0.000002 0.000001 0.000001 -0.000000 
0.188773 44.975029 8.081882 -90.806518 -2.093756 1.578698 0.697342 -0.115298 -0.728628 0.841708 0.154199 -0.463160 0.000000 0.000000 0.000000 0.831225 0.158014 -0.488483 -3.911648 4.013357 -8.413904 2.496876 8.457177 -12.890522 -0.000000 0.000000 0.000001 0.834523 -6.714845 -3.485280 0.000000 0.000000 0.000000 44.088953 -39.859485 -34.587709 0.000052 -83.340513 0.000068 -23.122540 -8.493307 7.462400 -1.945782 1.585328 13.204795 8.601840 21.114949 -0.258296 -4.250514 28.326738 20.005276 -0.000002 -0.000000 -0.000004 0.776303 5.158038 -28.512495 0.565999 2.514182 -25.370937 0.306482 1.871766 -18.596442 0.000003 0.000002 0.000002 0.776304 5.158045 -28.512498 0.566005 2.514178 -25.370941 0.084773 0.994022 -9.747968 0.000000 -0.000000 0.000000 0.776287 5.158036 -28.512509 0.351472 2.000440 -19.927996 0.131457 1.235367 -12.147814 0.000000 -0.000000 0.000001 0.484298 4.488131 3.202600 0.000000 0.000000 0.000000 -4.331812 2.278523 83.612478 -0.000003 129.566585 -0.000019 -0.044838 -5.712110 64.772344 -1.120918 -3.665707 -6.555845 8.244847 -30.620776 -3.274795 -5.098240 -8.587489 -15.375862 -0.000002 -0.000001 0.000002 4.540602 -8.344321 48.387389 6.575561 -4.244504 114.349101 1.886332 -3.744675 53.459795 0.000002 0.000000 0.000001 2.375482 -6.542189 44.640207 7.222615 -3.888174 123.454795 1.885854 -3.744336 53.452668 -0.000005 0.000000 -0.000000 2.745573 -6.923861 44.442292 7.225014 -3.886568 123.490312 1.886189 -3.744575 53.457821 0.000001 0.000000 0.000001 -11.573773 16.984111 19.746734 16.694992 0.125063 1.045351 18.743475 31.315352 -28.114199 -1.869982 -0.000014 -0.000005 -0.000000 0.000004 -0.000001 -16.881120 -15.343407 -20.648799 24.421577 -3.349039 -4.547373 25.522791 -32.925186 33.970240 -4.609342 0.000010 0.000010 0.000000 -0.000000 0.000000 
0.189126 44.974949 8.082249 -90.807529 -2.093398 1.579816 0.697313 -0.115285 -0.728601 0.841686 0.154199 -0.463160 0.000000 0.000000 0.000000 0.831231 0.158014 -0.488483 -3.937783 4.024677 -8.413909 2.565406 8.514517 -12.913616 -0.000000 -0.000000 0.000001 0.834869 -6.690153 -3.495166 0.000000 0.000000 0.000000 44.105844 -39.875047 -34.542930 0.000009 -83.340507 0.000005 -23.131805 -8.494000 7.461469 -1.945779 1.585324 13.204803 8.601839 21.114942 -0.258292 -4.250520 28.326738 20.005276 -0.000001 -0.000000 -0.000002 0.776304 5.158035 -28.512495 0.566002 2.514178 -25.370937 0.306474 1.871766 -18.596438 -0.000002 0.000001 -0.000002 0.776305 5.158038 -28.512495 0.566007 2.514179 -25.370937 0.084773 0.994022 -9.747968 0.000000 0.000004 -0.000001 0.776292 5.158033 -28.512505 0.351473 2.000437 -19.927997 0.131461 1.235369 -12.147814 -0.000001 0.000001 0.000001 0.485161 4.473281 3.202552 0.000000 0.000000 0.000000 -4.337904 2.290720 83.617648 -0.000016 129.559960 0.000006 -0.044336 -5.712120 64.777500 -1.120910 -3.665708 -6.555849 8.244846 -30.620776 -3.274795 -5.098233 -8.587489 -15.375866 -0.000004 -0.000002 0.000005 4.540609 -8.344322 48.387393 6.575564 -4.244503 114.349101 1.886333 -3.744671 53.459795 0.000001 0.000000 -0.000001 2.375481 -6.542193 44.640207 7.222619 -3.888174 123.454795 1.885860 -3.744331 53.452664 0.000001 0.000001 -0.000000 2.745576 -6.923864 44.442296 7.225013 -3.886567 123.490298 1.886199 -3.744572 53.457821 0.000000 -0.000002 -0.000000 -11.573448 16.983627 19.747906 16.699254 0.113429 1.044775 18.741281 31.314163 -28.113388 -1.862386 -0.000000 0.000000 -0.000001 0.000001 -0.000000 -16.883428 -15.347712 -20.650636 24.422180 -3.337312 -4.547166 25.522494 -32.925323 33.967610 -4.622816 0.000027 -0.000028 0.000000 0.000001 -0.000000 
0.189627 44.975040 8.082603 -90.808752 -2.092807 1.580641 0.697316 -0.115332 -0.728377 0.841707 0.154198 -0.463160 0.000000 0.000000 0.000000 0.831230 0.158014 -0.488483 -3.979794 4.042043 -8.413906 2.683942 8.574677 -12.963797 -0.000000 -0.000000 0.000001 0.835170 -6.657533 -3.509643 0.000000 0.000000 0.000000 44.126898 -39.892430 -34.487565 0.000035 -83.340507 0.000073 -23.142511 -8.494802 7.460368 -1.945781 1.585327 13.204795 8.601839 21.114942 -0.258296 -4.250515 28.326738 20.005277 0.000003 -0.000002 -0.000004 0.776301 5.158037 -28.512495 0.565999 2.514178 -25.370936 0.306482 1.871769 -18.596442 0.000000 -0.000000 -0.000001 0.776305 5.158042 -28.512498 0.566004 2.514180 -25.370937 0.084768 0.994025 -9.747967 -0.000001 0.000000 0.000000 0.776288 5.158035 -28.512509 0.351469 2.000440 -19.927996 0.131454 1.235362 -12.147813 0.000003 0.000002 -0.000000 0.486105 4.456136 3.202469 0.000000 0.000000 0.000000 -4.344469 2.305360 83.623072 -0.000036 129.552064 0.000013 -0.043853 -5.712120 64.782411 -1.120909 -3.665707 -6.555849 8.244849 -30.620773 -3.274792 -5.098231 -8.587489 -15.375857 0.000005 0.000002 0.000001 4.540606 -8.344323 48.387396 6.575559 -4.244501 114.349101 1.886339 -3.744674 53.459792 0.000004 -0.000001 -0.000000 2.375484 -6.542190 44.640207 7.222618 -3.888172 123.454795 1.885864 -3.744335 53.452661 0.000001 0.000000 -0.000001 2.745584 -6.923863 44.442292 7.225014 -3.886569 123.490312 1.886192 -3.744578 53.457821 -0.000001 0.000000 -0.000001 -11.572773 16.991434 19.745172 16.698194 0.115963 1.043941 18.733892 31.311838 -28.109034 -1.850358 0.000004 0.000018 0.000000 -0.000000 -0.000000 -16.883352 -15.358046 -20.650353 24.423373 -3.334544 -4.546648 25.518932 -32.926703 33.965059 -4.644646 0.000026 -0.000000 -0.000002 -0.000001 -0.000000 
